<svg xmlns="http://www.w3.org/2000/svg" width="1440" height="900"><path d="M710,567L582,655L683,723Z" fill="#5ab98e" stroke="#5ab98e" stroke-width="1.51"/><path d="M582,655L603,790L683,723Z" fill="#59b286" stroke="#59b286" stroke-width="1.51"/><path d="M683,723L851,633L710,567Z" fill="#51b588" stroke="#51b588" stroke-width="1.51"/><path d="M861,740L851,633L683,723Z" fill="#4aae7c" stroke="#4aae7c" stroke-width="1.51"/><path d="M683,935L861,740L683,723Z" fill="#47a673" stroke="#47a673" stroke-width="1.51"/><path d="M710,567L528,438L582,655Z" fill="#68c19e" stroke="#68c19e" stroke-width="1.51"/><path d="M582,655L383,793L603,790Z" fill="#62b589" stroke="#62b589" stroke-width="1.51"/><path d="M760,403L528,438L710,567Z" fill="#6ac4a5" stroke="#6ac4a5" stroke-width="1.51"/><path d="M528,438L417,589L582,655Z" fill="#72c5a4" stroke="#72c5a4" stroke-width="1.51"/><path d="M851,633L760,403L710,567Z" fill="#5bbc94" stroke="#5bbc94" stroke-width="1.51"/><path d="M603,790L683,935L683,723Z" fill="#4ea878" stroke="#4ea878" stroke-width="1.51"/><path d="M383,793L593,902L603,790Z" fill="#5cad80" stroke="#5cad80" stroke-width="1.51"/><path d="M593,902L683,935L603,790Z" fill="#4ea475" stroke="#4ea475" stroke-width="1.51"/><path d="M417,589L383,793L582,655Z" fill="#6cbe98" stroke="#6cbe98" stroke-width="1.51"/><path d="M851,633L888,405L760,403Z" fill="#5cbc96" stroke="#5cbc96" stroke-width="1.51"/><path d="M1015,479L888,405L851,633Z" fill="#53b88b" stroke="#53b88b" stroke-width="1.51"/><path d="M760,403L683,311L528,438Z" fill="#77c9af" stroke="#77c9af" stroke-width="1.51"/><path d="M845,293L683,311L760,403Z" fill="#74c8ac" stroke="#74c8ac" stroke-width="1.51"/><path d="M528,438L362,469L417,589Z" fill="#7fccb1" stroke="#7fccb1" stroke-width="1.51"/><path d="M417,589L241,636L383,793Z" fill="#79c39f" stroke="#79c39f" stroke-width="1.51"/><path d="M376,274L362,469L528,438Z" fill="#8cd2bf" stroke="#8cd2bf" stroke-width="1.51"/><path d="M683,311L569,275L528,438Z" fill="#83ceb8" stroke="#83ceb8" stroke-width="1.51"/><path d="M1047,590L1015,479L851,633Z" fill="#49b17e" stroke="#49b17e" stroke-width="1.51"/><path d="M683,935L856,973L861,740Z" fill="#3d9d67" stroke="#3d9d67" stroke-width="1.51"/><path d="M1047,590L851,633L861,740Z" fill="#44ad77" stroke="#44ad77" stroke-width="1.51"/><path d="M1054,812L1047,590L861,740Z" fill="#3aa569" stroke="#3aa569" stroke-width="1.51"/><path d="M888,405L845,293L760,403Z" fill="#6cc3a2" stroke="#6cc3a2" stroke-width="1.51"/><path d="M683,311L581,144L569,275Z" fill="#8fd3c1" stroke="#8fd3c1" stroke-width="1.51"/><path d="M1054,312L845,293L888,405Z" fill="#6ac19d" stroke="#6ac19d" stroke-width="1.51"/><path d="M383,793L392,920L593,902Z" fill="#60ac81" stroke="#60ac81" stroke-width="1.51"/><path d="M521,1128L743,1062L683,935Z" fill="#439367" stroke="#439367" stroke-width="1.51"/><path d="M683,935L743,1062L856,973Z" fill="#399563" stroke="#399563" stroke-width="1.51"/><path d="M362,469L241,636L417,589Z" fill="#83ccae" stroke="#83ccae" stroke-width="1.51"/><path d="M383,793L237,787L392,920Z" fill="#6fb48a" stroke="#6fb48a" stroke-width="1.51"/><path d="M1039,888L1054,812L861,740Z" fill="#329b5c" stroke="#329b5c" stroke-width="1.51"/><path d="M521,1128L683,935L593,902Z" fill="#4a9b6e" stroke="#4a9b6e" stroke-width="1.51"/><path d="M856,973L1039,888L861,740Z" fill="#349a5e" stroke="#349a5e" stroke-width="1.51"/><path d="M993,1056L1039,888L856,973Z" fill="#298e53" stroke="#298e53" stroke-width="1.51"/><path d="M241,636L237,787L383,793Z" fill="#7bbf98" stroke="#7bbf98" stroke-width="1.51"/><path d="M362,469L209,405L241,636Z" fill="#90d2ba" stroke="#90d2ba" stroke-width="1.51"/><path d="M569,275L376,274L528,438Z" fill="#8fd4c1" stroke="#8fd4c1" stroke-width="1.51"/><path d="M1054,812L1150,722L1047,590Z" fill="#359e61" stroke="#359e61" stroke-width="1.51"/><path d="M1230,467L1054,312L1015,479Z" fill="#54b184" stroke="#54b184" stroke-width="1.51"/><path d="M1147,932L1150,722L1054,812Z" fill="#2a914f" stroke="#2a914f" stroke-width="1.51"/><path d="M569,275L407,155L376,274Z" fill="#a0dbcc" stroke="#a0dbcc" stroke-width="1.51"/><path d="M726,103L581,144L683,311Z" fill="#93d5c1" stroke="#93d5c1" stroke-width="1.51"/><path d="M845,293L726,103L683,311Z" fill="#84ceb6" stroke="#84ceb6" stroke-width="1.51"/><path d="M1015,479L1054,312L888,405Z" fill="#5cbb91" stroke="#5cbb91" stroke-width="1.51"/><path d="M1230,467L1015,479L1047,590Z" fill="#48ac79" stroke="#48ac79" stroke-width="1.51"/><path d="M392,920L521,1128L593,902Z" fill="#54a075" stroke="#54a075" stroke-width="1.51"/><path d="M376,1093L521,1128L392,920Z" fill="#599b76" stroke="#599b76" stroke-width="1.51"/><path d="M249,320L209,405L362,469Z" fill="#9bd8c6" stroke="#9bd8c6" stroke-width="1.51"/><path d="M122,763L205,945L237,787Z" fill="#7dba91" stroke="#7dba91" stroke-width="1.51"/><path d="M376,274L249,320L362,469Z" fill="#9bd8c8" stroke="#9bd8c8" stroke-width="1.51"/><path d="M261,120L249,320L376,274Z" fill="#afe1d5" stroke="#afe1d5" stroke-width="1.51"/><path d="M1039,888L1147,932L1054,812Z" fill="#288f4e" stroke="#288f4e" stroke-width="1.51"/><path d="M895,1128L993,1056L856,973Z" fill="#2a8752" stroke="#2a8752" stroke-width="1.51"/><path d="M895,1128L856,973L743,1062Z" fill="#318a59" stroke="#318a59" stroke-width="1.51"/><path d="M237,1054L376,1093L392,920Z" fill="#64a17c" stroke="#64a17c" stroke-width="1.51"/><path d="M892,1201L895,1128L743,1062Z" fill="#2d7f53" stroke="#2d7f53" stroke-width="1.51"/><path d="M880,130L726,103L845,293Z" fill="#89cfb5" stroke="#89cfb5" stroke-width="1.51"/><path d="M448,-25L407,155L581,144Z" fill="#b1e2d6" stroke="#b1e2d6" stroke-width="1.51"/><path d="M581,144L407,155L569,275Z" fill="#9fdacb" stroke="#9fdacb" stroke-width="1.51"/><path d="M122,763L237,787L241,636Z" fill="#84c39e" stroke="#84c39e" stroke-width="1.51"/><path d="M237,787L205,945L392,920Z" fill="#72b189" stroke="#72b189" stroke-width="1.51"/><path d="M1040,161L880,130L845,293Z" fill="#7fcaaa" stroke="#7fcaaa" stroke-width="1.51"/><path d="M40,650L122,763L241,636Z" fill="#8bc9a7" stroke="#8bc9a7" stroke-width="1.51"/><path d="M993,1056L1147,932L1039,888Z" fill="#238a4b" stroke="#238a4b" stroke-width="1.51"/><path d="M1150,722L1232,584L1047,590Z" fill="#38a265" stroke="#38a265" stroke-width="1.51"/><path d="M1386,608L1232,584L1400,750Z" fill="#2c9456" stroke="#2c9456" stroke-width="1.51"/><path d="M521,1128L572,1211L743,1062Z" fill="#428865" stroke="#428865" stroke-width="1.51"/><path d="M442,1212L572,1211L521,1128Z" fill="#4b8969" stroke="#4b8969" stroke-width="1.51"/><path d="M1232,584L1230,467L1047,590Z" fill="#40a56e" stroke="#40a56e" stroke-width="1.51"/><path d="M1054,312L1040,161L845,293Z" fill="#73c4a0" stroke="#73c4a0" stroke-width="1.51"/><path d="M376,1093L442,1212L521,1128Z" fill="#528d6f" stroke="#528d6f" stroke-width="1.51"/><path d="M205,945L237,1054L392,920Z" fill="#6ca982" stroke="#6ca982" stroke-width="1.51"/><path d="M128,961L237,1054L205,945Z" fill="#73ac85" stroke="#73ac85" stroke-width="1.51"/><path d="M895,1128L1054,1216L993,1056Z" fill="#227b48" stroke="#227b48" stroke-width="1.51"/><path d="M993,1056L1197,1088L1147,932Z" fill="#1c7e41" stroke="#1c7e41" stroke-width="1.51"/><path d="M697,1289L892,1201L743,1062Z" fill="#317e57" stroke="#317e57" stroke-width="1.51"/><path d="M1148,268L1040,161L1054,312Z" fill="#6fbd96" stroke="#6fbd96" stroke-width="1.51"/><path d="M1230,467L1148,268L1054,312Z" fill="#5db387" stroke="#5db387" stroke-width="1.51"/><path d="M260,1264L442,1212L376,1093Z" fill="#5a8f72" stroke="#5a8f72" stroke-width="1.51"/><path d="M122,763L128,961L205,945Z" fill="#7bb58e" stroke="#7bb58e" stroke-width="1.51"/><path d="M75,412L40,650L241,636Z" fill="#95d2b8" stroke="#95d2b8" stroke-width="1.51"/><path d="M75,412L241,636L209,405Z" fill="#99d6c1" stroke="#99d6c1" stroke-width="1.51"/><path d="M-62,796L128,961L122,763Z" fill="#83bb95" stroke="#83bb95" stroke-width="1.51"/><path d="M249,320L128,315L209,405Z" fill="#a9ded0" stroke="#a9ded0" stroke-width="1.51"/><path d="M261,120L128,315L249,320Z" fill="#b5e3d8" stroke="#b5e3d8" stroke-width="1.51"/><path d="M893,14L717,10L726,103Z" fill="#9bd6c1" stroke="#9bd6c1" stroke-width="1.51"/><path d="M726,103L717,10L581,144Z" fill="#a0d9c8" stroke="#a0d9c8" stroke-width="1.51"/><path d="M893,14L726,103L880,130Z" fill="#95d3bb" stroke="#95d3bb" stroke-width="1.51"/><path d="M128,315L75,412L209,405Z" fill="#a9ddcf" stroke="#a9ddcf" stroke-width="1.51"/><path d="M442,1212L697,1289L572,1211Z" fill="#458665" stroke="#458665" stroke-width="1.51"/><path d="M572,1211L697,1289L743,1062Z" fill="#3b825f" stroke="#3b825f" stroke-width="1.51"/><path d="M287,-48L261,120L407,155Z" fill="#c3e8e0" stroke="#c3e8e0" stroke-width="1.51"/><path d="M407,155L261,120L376,274Z" fill="#b2e2d6" stroke="#b2e2d6" stroke-width="1.51"/><path d="M988,0L880,130L1040,161Z" fill="#8bcead" stroke="#8bcead" stroke-width="1.51"/><path d="M988,0L893,14L880,130Z" fill="#92d0b4" stroke="#92d0b4" stroke-width="1.51"/><path d="M550,-181L540,-21L717,10Z" fill="#b1e0d6" stroke="#b1e0d6" stroke-width="1.51"/><path d="M717,10L540,-21L581,144Z" fill="#a9ddcf" stroke="#a9ddcf" stroke-width="1.51"/><path d="M697,1289L1054,1216L892,1201Z" fill="#297a4e" stroke="#297a4e" stroke-width="1.51"/><path d="M892,1201L1054,1216L895,1128Z" fill="#247849" stroke="#247849" stroke-width="1.51"/><path d="M1054,1216L1197,1088L993,1056Z" fill="#1c763f" stroke="#1c763f" stroke-width="1.51"/><path d="M1400,750L1232,584L1150,722Z" fill="#2d9554" stroke="#2d9554" stroke-width="1.51"/><path d="M540,-21L448,-25L581,144Z" fill="#b2e1d6" stroke="#b2e1d6" stroke-width="1.51"/><path d="M1222,145L988,0L1040,161Z" fill="#85c5a2" stroke="#85c5a2" stroke-width="1.51"/><path d="M763,-194L550,-181L717,10Z" fill="#aeded1" stroke="#aeded1" stroke-width="1.51"/><path d="M128,961L127,1114L237,1054Z" fill="#71a482" stroke="#71a482" stroke-width="1.51"/><path d="M237,1054L260,1264L376,1093Z" fill="#629477" stroke="#629477" stroke-width="1.51"/><path d="M-88,1113L127,1114L128,961Z" fill="#76a485" stroke="#76a485" stroke-width="1.51"/><path d="M1230,467L1401,298L1148,268Z" fill="#58ab7d" stroke="#58ab7d" stroke-width="1.51"/><path d="M1148,268L1222,145L1040,161Z" fill="#74bc95" stroke="#74bc95" stroke-width="1.51"/><path d="M1232,584L1357,442L1230,467Z" fill="#41a16c" stroke="#41a16c" stroke-width="1.51"/><path d="M1386,608L1357,442L1232,584Z" fill="#399b63" stroke="#399b63" stroke-width="1.51"/><path d="M1400,750L1150,722L1147,932Z" fill="#248b45" stroke="#248b45" stroke-width="1.51"/><path d="M75,412L-53,464L40,650Z" fill="#9fd7c4" stroke="#9fd7c4" stroke-width="1.51"/><path d="M40,650L-62,796L122,763Z" fill="#8cc6a3" stroke="#8cc6a3" stroke-width="1.51"/><path d="M-88,247L-53,464L75,412Z" fill="#b0e0d5" stroke="#b0e0d5" stroke-width="1.51"/><path d="M-88,247L75,412L128,315Z" fill="#b4e2d8" stroke="#b4e2d8" stroke-width="1.51"/><path d="M1393,965L1400,750L1147,932Z" fill="#19803b" stroke="#19803b" stroke-width="1.51"/><path d="M-81,608L-62,796L40,650Z" fill="#93ccad" stroke="#93ccad" stroke-width="1.51"/><path d="M1401,298L1222,145L1148,268Z" fill="#68b287" stroke="#68b287" stroke-width="1.51"/><path d="M127,1114L260,1264L237,1054Z" fill="#69977b" stroke="#69977b" stroke-width="1.51"/><path d="M442,1212L260,1264L697,1289Z" fill="#4f8b6c" stroke="#4f8b6c" stroke-width="1.51"/><path d="M-53,464L-81,608L40,650Z" fill="#9cd4bc" stroke="#9cd4bc" stroke-width="1.51"/><path d="M261,120L72,169L128,315Z" fill="#bfe7df" stroke="#bfe7df" stroke-width="1.51"/><path d="M125,-5L72,169L261,120Z" fill="#cfede8" stroke="#cfede8" stroke-width="1.51"/><path d="M550,-181L448,-25L540,-21Z" fill="#bae5dd" stroke="#bae5dd" stroke-width="1.51"/><path d="M425,-176L287,-48L448,-25Z" fill="#c7eae5" stroke="#c7eae5" stroke-width="1.51"/><path d="M448,-25L287,-48L407,155Z" fill="#c0e7df" stroke="#c0e7df" stroke-width="1.51"/><path d="M1398,1126L1393,965L1197,1088Z" fill="#0c6d30" stroke="#0c6d30" stroke-width="1.51"/><path d="M1197,1088L1393,965L1147,932Z" fill="#137a37" stroke="#137a37" stroke-width="1.51"/><path d="M-62,796L-89,932L128,961Z" fill="#83b793" stroke="#83b793" stroke-width="1.51"/><path d="M127,1114L47,1212L260,1264Z" fill="#6b957b" stroke="#6b957b" stroke-width="1.51"/><path d="M-243,932L-89,932L-62,796Z" fill="#89b996" stroke="#89b996" stroke-width="1.51"/><path d="M1357,442L1401,298L1230,467Z" fill="#4ba374" stroke="#4ba374" stroke-width="1.51"/><path d="M1478,433L1401,298L1357,442Z" fill="#4a9f70" stroke="#4a9f70" stroke-width="1.51"/><path d="M1480,588L1357,442L1386,608Z" fill="#35965f" stroke="#35965f" stroke-width="1.51"/><path d="M1548,785L1480,588L1400,750Z" fill="#208647" stroke="#208647" stroke-width="1.51"/><path d="M1400,750L1480,588L1386,608Z" fill="#288f51" stroke="#288f51" stroke-width="1.51"/><path d="M763,-194L717,10L893,14Z" fill="#a2d8c6" stroke="#a2d8c6" stroke-width="1.51"/><path d="M1054,1216L1221,1258L1197,1088Z" fill="#166b36" stroke="#166b36" stroke-width="1.51"/><path d="M697,1289L1221,1258L1054,1216Z" fill="#207645" stroke="#207645" stroke-width="1.51"/><path d="M1480,588L1478,433L1357,442Z" fill="#3b9864" stroke="#3b9864" stroke-width="1.51"/><path d="M901,-190L763,-194L893,14Z" fill="#a2d8c2" stroke="#a2d8c2" stroke-width="1.51"/><path d="M901,-190L893,14L988,0Z" fill="#99d3b9" stroke="#99d3b9" stroke-width="1.51"/><path d="M287,-48L125,-5L261,120Z" fill="#cfeee9" stroke="#cfeee9" stroke-width="1.51"/><path d="M72,169L-88,247L128,315Z" fill="#bfe7e0" stroke="#bfe7e0" stroke-width="1.51"/><path d="M106,-150L125,-5L287,-48Z" fill="#d9f1ef" stroke="#d9f1ef" stroke-width="1.51"/><path d="M-88,1113L47,1212L127,1114Z" fill="#729a81" stroke="#729a81" stroke-width="1.51"/><path d="M-71,161L-88,247L72,169Z" fill="#caebe6" stroke="#caebe6" stroke-width="1.51"/><path d="M-240,642L-212,730L-81,608Z" fill="#9bd0b2" stroke="#9bd0b2" stroke-width="1.51"/><path d="M-81,608L-212,730L-62,796Z" fill="#95cbaa" stroke="#95cbaa" stroke-width="1.51"/><path d="M550,-181L425,-176L448,-25Z" fill="#c1e7e0" stroke="#c1e7e0" stroke-width="1.51"/><path d="M218,-209L425,-176L550,-181Z" fill="#cbebe5" stroke="#cbebe5" stroke-width="1.51"/><path d="M1032,-144L988,0L1218,-70Z" fill="#92caab" stroke="#92caab" stroke-width="1.51"/><path d="M1032,-144L901,-190L988,0Z" fill="#9ad2b7" stroke="#9ad2b7" stroke-width="1.51"/><path d="M1218,-70L988,0L1222,145Z" fill="#88c39f" stroke="#88c39f" stroke-width="1.51"/><path d="M1401,298L1392,161L1222,145Z" fill="#69af85" stroke="#69af85" stroke-width="1.51"/><path d="M1486,254L1392,161L1401,298Z" fill="#60a87d" stroke="#60a87d" stroke-width="1.51"/><path d="M125,-5L-71,161L72,169Z" fill="#d2eeeb" stroke="#d2eeeb" stroke-width="1.51"/><path d="M1221,1258L1398,1126L1197,1088Z" fill="#0e652e" stroke="#0e652e" stroke-width="1.51"/><path d="M1393,965L1498,925L1400,750Z" fill="#117936" stroke="#117936" stroke-width="1.51"/><path d="M1511,1045L1498,925L1393,965Z" fill="#026f2d" stroke="#026f2d" stroke-width="1.51"/><path d="M1480,588L1652,438L1478,433Z" fill="#379160" stroke="#379160" stroke-width="1.51"/><path d="M-89,932L-88,1113L128,961Z" fill="#7dad8b" stroke="#7dad8b" stroke-width="1.51"/><path d="M-240,642L-81,608L-271,459Z" fill="#a3d7bf" stroke="#a3d7bf" stroke-width="1.51"/><path d="M-81,608L-53,464L-271,459Z" fill="#a6d9c6" stroke="#a6d9c6" stroke-width="1.51"/><path d="M-238,1083L-88,1113L-89,932Z" fill="#7fa98a" stroke="#7fa98a" stroke-width="1.51"/><path d="M1498,925L1548,785L1400,750Z" fill="#147b38" stroke="#147b38" stroke-width="1.51"/><path d="M1370,-60L1218,-70L1222,145Z" fill="#83bb95" stroke="#83bb95" stroke-width="1.51"/><path d="M-190,318L-53,464L-88,247Z" fill="#b8e3da" stroke="#b8e3da" stroke-width="1.51"/><path d="M1478,433L1486,254L1401,298Z" fill="#51a074" stroke="#51a074" stroke-width="1.51"/><path d="M1392,161L1370,-60L1222,145Z" fill="#7bb68e" stroke="#7bb68e" stroke-width="1.51"/><path d="M1652,438L1486,254L1478,433Z" fill="#47976c" stroke="#47976c" stroke-width="1.51"/><path d="M-257,114L-190,318L-88,247Z" fill="#caebe5" stroke="#caebe5" stroke-width="1.51"/><path d="M-88,1113L-61,1206L47,1212Z" fill="#749882" stroke="#749882" stroke-width="1.51"/><path d="M47,1212L-205,1221L260,1264Z" fill="#719780" stroke="#719780" stroke-width="1.51"/><path d="M-205,1221L-61,1206L-88,1113Z" fill="#779a83" stroke="#779a83" stroke-width="1.51"/><path d="M-243,932L-62,796L-212,730Z" fill="#8ec09c" stroke="#8ec09c" stroke-width="1.51"/><path d="M1398,1126L1511,1045L1393,965Z" fill="#04692c" stroke="#04692c" stroke-width="1.51"/><path d="M1221,1258L1382,1239L1398,1126Z" fill="#0a612b" stroke="#0a612b" stroke-width="1.51"/><path d="M1495,1278L1511,1045L1398,1126Z" fill="#025b25" stroke="#025b25" stroke-width="1.51"/><path d="M1714,931L1629,726L1548,785Z" fill="#127033" stroke="#127033" stroke-width="1.51"/><path d="M-190,318L-271,459L-53,464Z" fill="#b1e0d2" stroke="#b1e0d2" stroke-width="1.51"/><path d="M-240,642L-243,932L-212,730Z" fill="#94c6a2" stroke="#94c6a2" stroke-width="1.51"/><path d="M-271,459L-243,932L-240,642Z" fill="#9ccfb0" stroke="#9ccfb0" stroke-width="1.51"/><path d="M763,-194L218,-209L550,-181Z" fill="#c1e7de" stroke="#c1e7de" stroke-width="1.51"/><path d="M425,-176L218,-209L287,-48Z" fill="#d2eeea" stroke="#d2eeea" stroke-width="1.51"/><path d="M125,-5L-91,-54L-71,161Z" fill="#dbf2f1" stroke="#dbf2f1" stroke-width="1.51"/><path d="M1714,931L1548,785L1498,925Z" fill="#0b6e30" stroke="#0b6e30" stroke-width="1.51"/><path d="M1548,785L1629,726L1480,588Z" fill="#1f8144" stroke="#1f8144" stroke-width="1.51"/><path d="M218,-209L106,-150L287,-48Z" fill="#dbf2f0" stroke="#dbf2f0" stroke-width="1.51"/><path d="M-71,161L-257,114L-88,247Z" fill="#d0ede9" stroke="#d0ede9" stroke-width="1.51"/><path d="M1486,254L1495,124L1392,161Z" fill="#68a980" stroke="#68a980" stroke-width="1.51"/><path d="M1640,164L1495,124L1486,254Z" fill="#64a27d" stroke="#64a27d" stroke-width="1.51"/><path d="M1495,124L1370,-60L1392,161Z" fill="#77b08a" stroke="#77b08a" stroke-width="1.51"/><path d="M1218,-70L1220,-215L1032,-144Z" fill="#92c6a4" stroke="#92c6a4" stroke-width="1.51"/><path d="M1032,-144L1220,-215L901,-190Z" fill="#9acfaf" stroke="#9acfaf" stroke-width="1.51"/><path d="M-243,932L-238,1083L-89,932Z" fill="#84b28f" stroke="#84b28f" stroke-width="1.51"/><path d="M-271,459L-238,1083L-243,932Z" fill="#91c19b" stroke="#91c19b" stroke-width="1.51"/><path d="M1673,606L1652,438L1480,588Z" fill="#2f8857" stroke="#2f8857" stroke-width="1.51"/><path d="M1629,726L1673,606L1480,588Z" fill="#23834b" stroke="#23834b" stroke-width="1.51"/><path d="M1393,-183L1220,-215L1218,-70Z" fill="#8cbf9a" stroke="#8cbf9a" stroke-width="1.51"/><path d="M901,-190L1220,-215L763,-194Z" fill="#a0d5b9" stroke="#a0d5b9" stroke-width="1.51"/><path d="M763,-194L1220,-215L218,-209Z" fill="#addece" stroke="#addece" stroke-width="1.51"/><path d="M-207,-3L-91,-54L-229,-198Z" fill="#eaf7fa" stroke="#eaf7fa" stroke-width="1.51"/><path d="M106,-150L-91,-54L125,-5Z" fill="#dff3f4" stroke="#dff3f4" stroke-width="1.51"/><path d="M-190,318L-257,114L-271,459Z" fill="#c3e8e0" stroke="#c3e8e0" stroke-width="1.51"/><path d="M1382,1239L1495,1278L1398,1126Z" fill="#045c26" stroke="#045c26" stroke-width="1.51"/><path d="M1511,1045L1635,1078L1498,925Z" fill="#006528" stroke="#006528" stroke-width="1.51"/><path d="M1629,726L1714,931L1673,606Z" fill="#177239" stroke="#177239" stroke-width="1.51"/><path d="M1221,1258L1495,1278L1382,1239Z" fill="#085f29" stroke="#085f29" stroke-width="1.51"/><path d="M697,1289L1495,1278L1221,1258Z" fill="#176d38" stroke="#176d38" stroke-width="1.51"/><path d="M-61,1206L-205,1221L47,1212Z" fill="#759982" stroke="#759982" stroke-width="1.51"/><path d="M-238,1083L-205,1221L-88,1113Z" fill="#7a9d84" stroke="#7a9d84" stroke-width="1.51"/><path d="M-207,-3L-257,114L-71,161Z" fill="#ddf2f0" stroke="#ddf2f0" stroke-width="1.51"/><path d="M1495,1278L1635,1078L1511,1045Z" fill="#005723" stroke="#005723" stroke-width="1.51"/><path d="M-91,-54L-207,-3L-71,161Z" fill="#dff3f3" stroke="#dff3f3" stroke-width="1.51"/><path d="M-59,-202L-91,-54L106,-150Z" fill="#e6f6f8" stroke="#e6f6f8" stroke-width="1.51"/><path d="M1718,252L1486,254L1652,438Z" fill="#4e946e" stroke="#4e946e" stroke-width="1.51"/><path d="M1718,252L1640,164L1486,254Z" fill="#5b9976" stroke="#5b9976" stroke-width="1.51"/><path d="M1472,-198L1393,-183L1370,-60Z" fill="#86b693" stroke="#86b693" stroke-width="1.51"/><path d="M1370,-60L1393,-183L1218,-70Z" fill="#88bb97" stroke="#88bb97" stroke-width="1.51"/><path d="M1635,1078L1714,931L1498,925Z" fill="#006328" stroke="#006328" stroke-width="1.51"/><path d="M1673,606L1718,252L1652,438Z" fill="#3a8760" stroke="#3a8760" stroke-width="1.51"/><path d="M1537,-64L1370,-60L1495,124Z" fill="#7aaf8b" stroke="#7aaf8b" stroke-width="1.51"/><path d="M218,-209L-59,-202L106,-150Z" fill="#e3f5f5" stroke="#e3f5f5" stroke-width="1.51"/><path d="M1646,-37L1537,-64L1495,124Z" fill="#76a786" stroke="#76a786" stroke-width="1.51"/><path d="M1640,164L1646,-37L1495,124Z" fill="#6fa281" stroke="#6fa281" stroke-width="1.51"/><path d="M1714,931L1718,252L1673,606Z" fill="#267d4c" stroke="#267d4c" stroke-width="1.51"/><path d="M1537,-64L1472,-198L1370,-60Z" fill="#82b390" stroke="#82b390" stroke-width="1.51"/><path d="M1393,-183L1472,-198L1220,-215Z" fill="#8bba96" stroke="#8bba96" stroke-width="1.51"/><path d="M1628,-214L1472,-198L1537,-64Z" fill="#81ac8c" stroke="#81ac8c" stroke-width="1.51"/><path d="M1718,252L1646,-37L1640,164Z" fill="#679a7b" stroke="#679a7b" stroke-width="1.51"/><path d="M1495,1278L1706,1277L1635,1078Z" fill="#004f1f" stroke="#004f1f" stroke-width="1.51"/><path d="M1635,1078L1706,1277L1714,931Z" fill="#005020" stroke="#005020" stroke-width="1.51"/><path d="M697,1289L1706,1277L1495,1278Z" fill="#0c632c" stroke="#0c632c" stroke-width="1.51"/><path d="M218,-209L-229,-198L-59,-202Z" fill="#eaf7f9" stroke="#eaf7f9" stroke-width="1.51"/><path d="M-59,-202L-229,-198L-91,-54Z" fill="#ebf7fa" stroke="#ebf7fa" stroke-width="1.51"/><path d="M-207,-3L-229,-198L-257,114Z" fill="#e8f6f7" stroke="#e8f6f7" stroke-width="1.51"/><path d="M1646,-37L1628,-214L1537,-64Z" fill="#7ca689" stroke="#7ca689" stroke-width="1.51"/><path d="M1472,-198L1628,-214L1220,-215Z" fill="#88b692" stroke="#88b692" stroke-width="1.51"/><path d="M1718,252L1628,-214L1646,-37Z" fill="#729e82" stroke="#729e82" stroke-width="1.51"/></svg>