<svg xmlns="http://www.w3.org/2000/svg" width="1440" height="900"><path d="M771,442L863,355L770,360Z" fill="#7fcbc4" stroke="#7fcbc4" stroke-width="1.51"/><path d="M771,442L871,455L863,355Z" fill="#77c7c7" stroke="#77c7c7" stroke-width="1.51"/><path d="M863,355L867,259L770,360Z" fill="#86ccc2" stroke="#86ccc2" stroke-width="1.51"/><path d="M958,345L867,259L863,355Z" fill="#82c9c4" stroke="#82c9c4" stroke-width="1.51"/><path d="M968,442L958,345L863,355Z" fill="#75c3c8" stroke="#75c3c8" stroke-width="1.51"/><path d="M871,455L968,442L863,355Z" fill="#71c3c9" stroke="#71c3c9" stroke-width="1.51"/><path d="M771,442L776,550L871,455Z" fill="#70c4c9" stroke="#70c4c9" stroke-width="1.51"/><path d="M871,455L957,547L968,442Z" fill="#64bdcd" stroke="#64bdcd" stroke-width="1.51"/><path d="M776,550L866,554L871,455Z" fill="#68c0cc" stroke="#68c0cc" stroke-width="1.51"/><path d="M867,259L763,247L770,360Z" fill="#8ed0c0" stroke="#8ed0c0" stroke-width="1.51"/><path d="M770,360L664,454L771,442Z" fill="#7fccc3" stroke="#7fccc3" stroke-width="1.51"/><path d="M771,442L671,548L776,550Z" fill="#72c6c8" stroke="#72c6c8" stroke-width="1.51"/><path d="M663,344L664,454L770,360Z" fill="#88d0c1" stroke="#88d0c1" stroke-width="1.51"/><path d="M763,247L663,344L770,360Z" fill="#8ed2bf" stroke="#8ed2bf" stroke-width="1.51"/><path d="M866,554L957,547L871,455Z" fill="#62bcce" stroke="#62bcce" stroke-width="1.51"/><path d="M958,345L963,257L867,259Z" fill="#84c8c4" stroke="#84c8c4" stroke-width="1.51"/><path d="M867,259L861,159L763,247Z" fill="#94d1c4" stroke="#94d1c4" stroke-width="1.51"/><path d="M1055,262L963,257L958,345Z" fill="#80c3c2" stroke="#80c3c2" stroke-width="1.51"/><path d="M664,454L671,548L771,442Z" fill="#7acac5" stroke="#7acac5" stroke-width="1.51"/><path d="M776,652L874,649L866,554Z" fill="#5ab7cf" stroke="#5ab7cf" stroke-width="1.51"/><path d="M763,247L670,250L663,344Z" fill="#96d6bd" stroke="#96d6bd" stroke-width="1.51"/><path d="M968,442L1065,348L958,345Z" fill="#71bec6" stroke="#71bec6" stroke-width="1.51"/><path d="M957,547L1057,449L968,442Z" fill="#60b8cb" stroke="#60b8cb" stroke-width="1.51"/><path d="M959,157L861,159L867,259Z" fill="#93cfc8" stroke="#93cfc8" stroke-width="1.51"/><path d="M763,247L674,164L670,250Z" fill="#9dd8c0" stroke="#9dd8c0" stroke-width="1.51"/><path d="M663,344L575,443L664,454Z" fill="#8ad1c0" stroke="#8ad1c0" stroke-width="1.51"/><path d="M664,454L580,551L671,548Z" fill="#7dc9c5" stroke="#7dc9c5" stroke-width="1.51"/><path d="M670,250L580,344L663,344Z" fill="#98d6bb" stroke="#98d6bb" stroke-width="1.51"/><path d="M580,344L575,443L663,344Z" fill="#93d4bd" stroke="#93d4bd" stroke-width="1.51"/><path d="M1057,449L1065,348L968,442Z" fill="#69b9c6" stroke="#69b9c6" stroke-width="1.51"/><path d="M963,257L959,157L867,259Z" fill="#8ccbc8" stroke="#8ccbc8" stroke-width="1.51"/><path d="M866,554L874,649L957,547Z" fill="#58b7d1" stroke="#58b7d1" stroke-width="1.51"/><path d="M957,547L1054,555L1057,449Z" fill="#59b2cb" stroke="#59b2cb" stroke-width="1.51"/><path d="M776,652L866,554L776,550Z" fill="#62bcce" stroke="#62bcce" stroke-width="1.51"/><path d="M861,159L771,150L763,247Z" fill="#9ad4c5" stroke="#9ad4c5" stroke-width="1.51"/><path d="M668,641L776,652L776,550Z" fill="#65becc" stroke="#65becc" stroke-width="1.51"/><path d="M1065,348L1055,262L958,345Z" fill="#7abec2" stroke="#7abec2" stroke-width="1.51"/><path d="M670,250L575,247L580,344Z" fill="#9fd9ba" stroke="#9fd9ba" stroke-width="1.51"/><path d="M771,150L674,164L763,247Z" fill="#9ed8c2" stroke="#9ed8c2" stroke-width="1.51"/><path d="M1057,165L959,157L963,257Z" fill="#8cc7c7" stroke="#8cc7c7" stroke-width="1.51"/><path d="M870,53L764,61L771,150Z" fill="#a3d8cb" stroke="#a3d8cb" stroke-width="1.51"/><path d="M965,647L1054,555L957,547Z" fill="#4fb0d0" stroke="#4fb0d0" stroke-width="1.51"/><path d="M1057,449L1152,441L1065,348Z" fill="#66b3c3" stroke="#66b3c3" stroke-width="1.51"/><path d="M671,548L668,641L776,550Z" fill="#6dc2ca" stroke="#6dc2ca" stroke-width="1.51"/><path d="M575,443L580,551L664,454Z" fill="#84cec2" stroke="#84cec2" stroke-width="1.51"/><path d="M580,551L668,641L671,548Z" fill="#76c4c8" stroke="#76c4c8" stroke-width="1.51"/><path d="M874,649L965,647L957,547Z" fill="#4fb3d2" stroke="#4fb3d2" stroke-width="1.51"/><path d="M960,739L965,647L874,649Z" fill="#48abcf" stroke="#48abcf" stroke-width="1.51"/><path d="M674,164L575,247L670,250Z" fill="#a3dabe" stroke="#a3dabe" stroke-width="1.51"/><path d="M480,349L480,446L575,443Z" fill="#97d6bc" stroke="#97d6bc" stroke-width="1.51"/><path d="M1055,262L1057,165L963,257Z" fill="#86c3c4" stroke="#86c3c4" stroke-width="1.51"/><path d="M1152,259L1057,165L1055,262Z" fill="#82bdc1" stroke="#82bdc1" stroke-width="1.51"/><path d="M1154,549L1152,441L1057,449Z" fill="#58adc5" stroke="#58adc5" stroke-width="1.51"/><path d="M1065,348L1152,259L1055,262Z" fill="#7bbabe" stroke="#7bbabe" stroke-width="1.51"/><path d="M1152,441L1157,351L1065,348Z" fill="#69b2c0" stroke="#69b2c0" stroke-width="1.51"/><path d="M575,443L480,446L580,551Z" fill="#8cd0c0" stroke="#8cd0c0" stroke-width="1.51"/><path d="M480,349L575,443L580,344Z" fill="#99d6bb" stroke="#99d6bb" stroke-width="1.51"/><path d="M480,260L480,349L580,344Z" fill="#a4dbb7" stroke="#a4dbb7" stroke-width="1.51"/><path d="M771,150L764,61L674,164Z" fill="#a5dac6" stroke="#a5dac6" stroke-width="1.51"/><path d="M674,164L572,152L575,247Z" fill="#abddbe" stroke="#abddbe" stroke-width="1.51"/><path d="M870,53L771,150L861,159Z" fill="#9ed5ca" stroke="#9ed5ca" stroke-width="1.51"/><path d="M870,53L861,159L959,157Z" fill="#9ad1cb" stroke="#9ad1cb" stroke-width="1.51"/><path d="M776,652L862,750L874,649Z" fill="#54afcb" stroke="#54afcb" stroke-width="1.51"/><path d="M673,738L772,747L776,652Z" fill="#5db1c5" stroke="#5db1c5" stroke-width="1.51"/><path d="M678,52L572,152L674,164Z" fill="#aedfc3" stroke="#aedfc3" stroke-width="1.51"/><path d="M575,247L480,260L580,344Z" fill="#a5dbb7" stroke="#a5dbb7" stroke-width="1.51"/><path d="M580,551L564,641L668,641Z" fill="#76c3c8" stroke="#76c3c8" stroke-width="1.51"/><path d="M668,641L673,738L776,652Z" fill="#63b7c7" stroke="#63b7c7" stroke-width="1.51"/><path d="M472,546L564,641L580,551Z" fill="#81c9c4" stroke="#81c9c4" stroke-width="1.51"/><path d="M968,58L870,53L959,157Z" fill="#99d0cf" stroke="#99d0cf" stroke-width="1.51"/><path d="M772,747L862,750L776,652Z" fill="#55adc8" stroke="#55adc8" stroke-width="1.51"/><path d="M1054,555L1154,549L1057,449Z" fill="#54adc8" stroke="#54adc8" stroke-width="1.51"/><path d="M965,647L1070,650L1054,555Z" fill="#47aace" stroke="#47aace" stroke-width="1.51"/><path d="M1069,740L1070,650L965,647Z" fill="#40a2ca" stroke="#40a2ca" stroke-width="1.51"/><path d="M1157,351L1152,259L1065,348Z" fill="#74b5bd" stroke="#74b5bd" stroke-width="1.51"/><path d="M1070,650L1154,549L1054,555Z" fill="#48a7cb" stroke="#48a7cb" stroke-width="1.51"/><path d="M1260,441L1250,344L1157,351Z" fill="#66aabc" stroke="#66aabc" stroke-width="1.51"/><path d="M477,153L480,260L575,247Z" fill="#afe0b9" stroke="#afe0b9" stroke-width="1.51"/><path d="M862,750L960,739L874,649Z" fill="#4aa8cb" stroke="#4aa8cb" stroke-width="1.51"/><path d="M572,745L673,738L668,641Z" fill="#6ab5c3" stroke="#6ab5c3" stroke-width="1.51"/><path d="M1070,56L968,58L1057,165Z" fill="#94c7cb" stroke="#94c7cb" stroke-width="1.51"/><path d="M1057,165L968,58L959,157Z" fill="#94c9cb" stroke="#94c9cb" stroke-width="1.51"/><path d="M762,-47L678,52L764,61Z" fill="#acddcd" stroke="#acddcd" stroke-width="1.51"/><path d="M764,61L678,52L674,164Z" fill="#aaddc7" stroke="#aaddc7" stroke-width="1.51"/><path d="M386,450L480,446L382,358Z" fill="#9fd8be" stroke="#9fd8be" stroke-width="1.51"/><path d="M386,450L472,546L480,446Z" fill="#95d3c0" stroke="#95d3c0" stroke-width="1.51"/><path d="M480,446L472,546L580,551Z" fill="#8bcfc0" stroke="#8bcfc0" stroke-width="1.51"/><path d="M1152,259L1159,161L1057,165Z" fill="#85bbc1" stroke="#85bbc1" stroke-width="1.51"/><path d="M1260,254L1159,161L1152,259Z" fill="#7eb4bd" stroke="#7eb4bd" stroke-width="1.51"/><path d="M960,739L1069,740L965,647Z" fill="#40a1ca" stroke="#40a1ca" stroke-width="1.51"/><path d="M1070,650L1166,650L1154,549Z" fill="#40a1ca" stroke="#40a1ca" stroke-width="1.51"/><path d="M960,843L1069,740L960,739Z" fill="#399ac5" stroke="#399ac5" stroke-width="1.51"/><path d="M382,358L480,446L480,349Z" fill="#a1d9bc" stroke="#a1d9bc" stroke-width="1.51"/><path d="M572,152L477,153L575,247Z" fill="#b0e0bc" stroke="#b0e0bc" stroke-width="1.51"/><path d="M567,61L477,153L572,152Z" fill="#b7e3bf" stroke="#b7e3bf" stroke-width="1.51"/><path d="M678,52L567,61L572,152Z" fill="#b4e1c3" stroke="#b4e1c3" stroke-width="1.51"/><path d="M671,834L774,842L772,747Z" fill="#57a6c0" stroke="#57a6c0" stroke-width="1.51"/><path d="M772,747L774,842L862,750Z" fill="#51a5c4" stroke="#51a5c4" stroke-width="1.51"/><path d="M564,641L572,745L668,641Z" fill="#72bbc3" stroke="#72bbc3" stroke-width="1.51"/><path d="M482,738L572,745L564,641Z" fill="#77b9c0" stroke="#77b9c0" stroke-width="1.51"/><path d="M960,-33L868,-36L870,53Z" fill="#a2d5d4" stroke="#a2d5d4" stroke-width="1.51"/><path d="M1159,161L1070,56L1057,165Z" fill="#8ec0c6" stroke="#8ec0c6" stroke-width="1.51"/><path d="M1163,735L1166,650L1070,650Z" fill="#3899c6" stroke="#3899c6" stroke-width="1.51"/><path d="M1260,441L1157,351L1152,441Z" fill="#61abbf" stroke="#61abbf" stroke-width="1.51"/><path d="M1157,351L1250,344L1152,259Z" fill="#71b0bb" stroke="#71b0bb" stroke-width="1.51"/><path d="M472,546L470,651L564,641Z" fill="#82c7c5" stroke="#82c7c5" stroke-width="1.51"/><path d="M385,552L470,651L472,546Z" fill="#8bccc5" stroke="#8bccc5" stroke-width="1.51"/><path d="M1260,441L1152,441L1154,549Z" fill="#55a7c2" stroke="#55a7c2" stroke-width="1.51"/><path d="M382,358L480,349L480,260Z" fill="#a9ddb9" stroke="#a9ddb9" stroke-width="1.51"/><path d="M373,252L382,358L480,260Z" fill="#b0e0b8" stroke="#b0e0b8" stroke-width="1.51"/><path d="M870,53L868,-36L764,61Z" fill="#a4d7d0" stroke="#a4d7d0" stroke-width="1.51"/><path d="M678,52L665,-37L567,61Z" fill="#b4e1c9" stroke="#b4e1c9" stroke-width="1.51"/><path d="M960,-33L870,53L968,58Z" fill="#9dd2d4" stroke="#9dd2d4" stroke-width="1.51"/><path d="M1251,555L1260,441L1154,549Z" fill="#4ea1c2" stroke="#4ea1c2" stroke-width="1.51"/><path d="M671,834L772,747L673,738Z" fill="#5cabc0" stroke="#5cabc0" stroke-width="1.51"/><path d="M862,750L960,843L960,739Z" fill="#3f9fc8" stroke="#3f9fc8" stroke-width="1.51"/><path d="M774,842L864,843L862,750Z" fill="#4ba0c3" stroke="#4ba0c3" stroke-width="1.51"/><path d="M868,-36L762,-47L764,61Z" fill="#a9dad1" stroke="#a9dad1" stroke-width="1.51"/><path d="M868,-36L863,-131L762,-47Z" fill="#abdad7" stroke="#abdad7" stroke-width="1.51"/><path d="M1054,-45L960,-33L968,58Z" fill="#9ccdd4" stroke="#9ccdd4" stroke-width="1.51"/><path d="M572,745L671,834L673,738Z" fill="#65aebf" stroke="#65aebf" stroke-width="1.51"/><path d="M1166,650L1251,555L1154,549Z" fill="#429fc7" stroke="#429fc7" stroke-width="1.51"/><path d="M372,642L385,552L285,643Z" fill="#90ccca" stroke="#90ccca" stroke-width="1.51"/><path d="M386,450L385,552L472,546Z" fill="#94d1c3" stroke="#94d1c3" stroke-width="1.51"/><path d="M762,-47L665,-37L678,52Z" fill="#b1e0ce" stroke="#b1e0ce" stroke-width="1.51"/><path d="M864,843L960,843L862,750Z" fill="#429dc5" stroke="#429dc5" stroke-width="1.51"/><path d="M1069,740L1163,735L1070,650Z" fill="#3898c5" stroke="#3898c5" stroke-width="1.51"/><path d="M1250,344L1260,254L1152,259Z" fill="#75aeb9" stroke="#75aeb9" stroke-width="1.51"/><path d="M1159,161L1156,63L1070,56Z" fill="#8ebec6" stroke="#8ebec6" stroke-width="1.51"/><path d="M1351,255L1260,254L1250,344Z" fill="#73a9b6" stroke="#73a9b6" stroke-width="1.51"/><path d="M276,539L385,552L386,450Z" fill="#9ad4c5" stroke="#9ad4c5" stroke-width="1.51"/><path d="M385,157L373,252L480,260Z" fill="#b7e3bb" stroke="#b7e3bb" stroke-width="1.51"/><path d="M385,157L480,260L477,153Z" fill="#b8e3bc" stroke="#b8e3bc" stroke-width="1.51"/><path d="M469,50L477,153L567,61Z" fill="#bde5c0" stroke="#bde5c0" stroke-width="1.51"/><path d="M572,745L565,846L671,834Z" fill="#68abbb" stroke="#68abbb" stroke-width="1.51"/><path d="M470,651L482,738L564,641Z" fill="#7dbfc0" stroke="#7dbfc0" stroke-width="1.51"/><path d="M369,743L482,738L470,651Z" fill="#80bdc0" stroke="#80bdc0" stroke-width="1.51"/><path d="M1070,56L1054,-45L968,58Z" fill="#98c9d0" stroke="#98c9d0" stroke-width="1.51"/><path d="M1251,160L1156,63L1159,161Z" fill="#89b7c2" stroke="#89b7c2" stroke-width="1.51"/><path d="M1166,650L1260,638L1251,555Z" fill="#3b99c6" stroke="#3b99c6" stroke-width="1.51"/><path d="M1162,834L1163,735L1069,740Z" fill="#2e8ebf" stroke="#2e8ebf" stroke-width="1.51"/><path d="M1260,254L1251,160L1159,161Z" fill="#81b2bd" stroke="#81b2bd" stroke-width="1.51"/><path d="M482,-33L469,50L567,61Z" fill="#c0e7c4" stroke="#c0e7c4" stroke-width="1.51"/><path d="M385,58L385,157L477,153Z" fill="#c2e7c0" stroke="#c2e7c0" stroke-width="1.51"/><path d="M1266,741L1260,638L1166,650Z" fill="#3491c1" stroke="#3491c1" stroke-width="1.51"/><path d="M1350,547L1347,443L1260,441Z" fill="#519cbc" stroke="#519cbc" stroke-width="1.51"/><path d="M1167,-44L1054,-45L1070,56Z" fill="#96c3cf" stroke="#96c3cf" stroke-width="1.51"/><path d="M960,-33L863,-131L868,-36Z" fill="#a7d6d8" stroke="#a7d6d8" stroke-width="1.51"/><path d="M1167,-44L1070,56L1156,63Z" fill="#92bfcb" stroke="#92bfcb" stroke-width="1.51"/><path d="M575,-131L575,-43L665,-37Z" fill="#bee5ce" stroke="#bee5ce" stroke-width="1.51"/><path d="M665,-37L575,-43L567,61Z" fill="#b9e4ca" stroke="#b9e4ca" stroke-width="1.51"/><path d="M385,552L372,642L470,651Z" fill="#8acac8" stroke="#8acac8" stroke-width="1.51"/><path d="M288,358L386,450L382,358Z" fill="#a8dcbf" stroke="#a8dcbf" stroke-width="1.51"/><path d="M960,843L1070,847L1069,740Z" fill="#3492c2" stroke="#3492c2" stroke-width="1.51"/><path d="M1163,735L1266,741L1166,650Z" fill="#3190c0" stroke="#3190c0" stroke-width="1.51"/><path d="M1061,939L1070,847L960,843Z" fill="#308bbe" stroke="#308bbe" stroke-width="1.51"/><path d="M867,939L960,843L864,843Z" fill="#3f95c1" stroke="#3f95c1" stroke-width="1.51"/><path d="M482,738L565,846L572,745Z" fill="#72b1bb" stroke="#72b1bb" stroke-width="1.51"/><path d="M763,945L867,939L774,842Z" fill="#4a96bc" stroke="#4a96bc" stroke-width="1.51"/><path d="M774,842L867,939L864,843Z" fill="#4799bf" stroke="#4799bf" stroke-width="1.51"/><path d="M472,849L565,846L482,738Z" fill="#74aeb8" stroke="#74aeb8" stroke-width="1.51"/><path d="M1260,441L1361,348L1250,344Z" fill="#64a4b9" stroke="#64a4b9" stroke-width="1.51"/><path d="M1260,254L1351,255L1251,160Z" fill="#7babb9" stroke="#7babb9" stroke-width="1.51"/><path d="M1350,547L1260,441L1251,555Z" fill="#4c9cbf" stroke="#4c9cbf" stroke-width="1.51"/><path d="M373,252L288,358L382,358Z" fill="#b1e1bc" stroke="#b1e1bc" stroke-width="1.51"/><path d="M276,257L288,358L373,252Z" fill="#b8e3bc" stroke="#b8e3bc" stroke-width="1.51"/><path d="M962,-138L863,-131L960,-33Z" fill="#a7d5dc" stroke="#a7d5dc" stroke-width="1.51"/><path d="M762,-47L666,-137L665,-37Z" fill="#b6e2d2" stroke="#b6e2d2" stroke-width="1.51"/><path d="M863,-131L775,-138L762,-47Z" fill="#b0ddd8" stroke="#b0ddd8" stroke-width="1.51"/><path d="M763,945L774,842L679,941Z" fill="#529aba" stroke="#529aba" stroke-width="1.51"/><path d="M288,358L277,450L386,450Z" fill="#a7dcc2" stroke="#a7dcc2" stroke-width="1.51"/><path d="M1347,443L1361,348L1260,441Z" fill="#5c9fb9" stroke="#5c9fb9" stroke-width="1.51"/><path d="M679,941L774,842L671,834Z" fill="#579fbb" stroke="#579fbb" stroke-width="1.51"/><path d="M575,-43L482,-33L567,61Z" fill="#bfe6c8" stroke="#bfe6c8" stroke-width="1.51"/><path d="M469,50L385,58L477,153Z" fill="#c2e7c2" stroke="#c2e7c2" stroke-width="1.51"/><path d="M575,-131L482,-33L575,-43Z" fill="#c3e8cc" stroke="#c3e8cc" stroke-width="1.51"/><path d="M1457,448L1453,353L1361,348Z" fill="#5e97b1" stroke="#5e97b1" stroke-width="1.51"/><path d="M1260,638L1350,547L1251,555Z" fill="#3f96c2" stroke="#3f96c2" stroke-width="1.51"/><path d="M1348,647L1350,547L1260,638Z" fill="#3792c2" stroke="#3792c2" stroke-width="1.51"/><path d="M1361,348L1351,255L1250,344Z" fill="#6da4b5" stroke="#6da4b5" stroke-width="1.51"/><path d="M1251,160L1265,60L1156,63Z" fill="#8ab5c3" stroke="#8ab5c3" stroke-width="1.51"/><path d="M279,148L276,257L373,252Z" fill="#c0e6bf" stroke="#c0e6bf" stroke-width="1.51"/><path d="M381,-33L385,58L469,50Z" fill="#c8eac7" stroke="#c8eac7" stroke-width="1.51"/><path d="M1070,847L1162,834L1069,740Z" fill="#2e8cbf" stroke="#2e8cbf" stroke-width="1.51"/><path d="M1166,930L1162,834L1070,847Z" fill="#2683ba" stroke="#2683ba" stroke-width="1.51"/><path d="M863,-131L962,-138L775,-138Z" fill="#aedadc" stroke="#aedadc" stroke-width="1.51"/><path d="M1054,-45L962,-138L960,-33Z" fill="#a1cfd8" stroke="#a1cfd8" stroke-width="1.51"/><path d="M1060,-142L962,-138L1054,-45Z" fill="#a1cdd9" stroke="#a1cdd9" stroke-width="1.51"/><path d="M569,935L679,941L671,834Z" fill="#5f9eb8" stroke="#5f9eb8" stroke-width="1.51"/><path d="M775,-138L666,-137L762,-47Z" fill="#b5e1d5" stroke="#b5e1d5" stroke-width="1.51"/><path d="M277,450L276,539L386,450Z" fill="#a0d8c5" stroke="#a0d8c5" stroke-width="1.51"/><path d="M1364,156L1265,60L1251,160Z" fill="#86aebe" stroke="#86aebe" stroke-width="1.51"/><path d="M180,356L184,454L277,450Z" fill="#addec7" stroke="#addec7" stroke-width="1.51"/><path d="M277,450L184,454L276,539Z" fill="#a5d9c8" stroke="#a5d9c8" stroke-width="1.51"/><path d="M279,148L373,252L385,157Z" fill="#c1e6c0" stroke="#c1e6c0" stroke-width="1.51"/><path d="M1162,834L1266,741L1163,735Z" fill="#2989bd" stroke="#2989bd" stroke-width="1.51"/><path d="M867,939L962,946L960,843Z" fill="#388fc0" stroke="#388fc0" stroke-width="1.51"/><path d="M872,1038L962,946L867,939Z" fill="#3a88b7" stroke="#3a88b7" stroke-width="1.51"/><path d="M1265,60L1167,-44L1156,63Z" fill="#8fb9c8" stroke="#8fb9c8" stroke-width="1.51"/><path d="M372,642L369,743L470,651Z" fill="#86c2c4" stroke="#86c2c4" stroke-width="1.51"/><path d="M565,846L569,935L671,834Z" fill="#66a3b8" stroke="#66a3b8" stroke-width="1.51"/><path d="M286,737L369,743L372,642Z" fill="#89c0c4" stroke="#89c0c4" stroke-width="1.51"/><path d="M371,834L472,849L482,738Z" fill="#7ab0bb" stroke="#7ab0bb" stroke-width="1.51"/><path d="M1266,741L1348,647L1260,638Z" fill="#318cbf" stroke="#318cbf" stroke-width="1.51"/><path d="M1457,448L1361,348L1347,443Z" fill="#5a9ab6" stroke="#5a9ab6" stroke-width="1.51"/><path d="M482,-33L381,-33L469,50Z" fill="#c7eac8" stroke="#c7eac8" stroke-width="1.51"/><path d="M666,-137L575,-131L665,-37Z" fill="#bee5d1" stroke="#bee5d1" stroke-width="1.51"/><path d="M276,539L285,643L385,552Z" fill="#96d0ca" stroke="#96d0ca" stroke-width="1.51"/><path d="M481,936L569,935L565,846Z" fill="#6ca1b4" stroke="#6ca1b4" stroke-width="1.51"/><path d="M1162,834L1260,837L1266,741Z" fill="#2582b9" stroke="#2582b9" stroke-width="1.51"/><path d="M962,946L1061,939L960,843Z" fill="#318abe" stroke="#318abe" stroke-width="1.51"/><path d="M1167,-44L1060,-142L1054,-45Z" fill="#9bc6d3" stroke="#9bc6d3" stroke-width="1.51"/><path d="M962,-138L1060,-142L775,-138Z" fill="#a9d6de" stroke="#a9d6de" stroke-width="1.51"/><path d="M775,-138L386,-140L666,-137Z" fill="#c2e7d3" stroke="#c2e7d3" stroke-width="1.51"/><path d="M385,58L279,148L385,157Z" fill="#c7eac3" stroke="#c7eac3" stroke-width="1.51"/><path d="M283,55L279,148L385,58Z" fill="#ccebc6" stroke="#ccebc6" stroke-width="1.51"/><path d="M1265,60L1251,-48L1167,-44Z" fill="#90b8c9" stroke="#90b8c9" stroke-width="1.51"/><path d="M1351,255L1364,156L1251,160Z" fill="#7da9b9" stroke="#7da9b9" stroke-width="1.51"/><path d="M1461,250L1364,156L1351,255Z" fill="#77a2b4" stroke="#77a2b4" stroke-width="1.51"/><path d="M472,-132L381,-33L482,-33Z" fill="#ccebcc" stroke="#ccebcc" stroke-width="1.51"/><path d="M1266,741L1350,747L1348,647Z" fill="#2b85bb" stroke="#2b85bb" stroke-width="1.51"/><path d="M1166,930L1260,837L1162,834Z" fill="#217db7" stroke="#217db7" stroke-width="1.51"/><path d="M1167,-44L1162,-145L1060,-142Z" fill="#9bc3d4" stroke="#9bc3d4" stroke-width="1.51"/><path d="M1360,-39L1251,-48L1265,60Z" fill="#8db2c7" stroke="#8db2c7" stroke-width="1.51"/><path d="M286,737L371,834L369,743Z" fill="#85b8c0" stroke="#85b8c0" stroke-width="1.51"/><path d="M369,743L371,834L482,738Z" fill="#7eb6be" stroke="#7eb6be" stroke-width="1.51"/><path d="M472,849L481,936L565,846Z" fill="#71a6b5" stroke="#71a6b5" stroke-width="1.51"/><path d="M285,643L286,737L372,642Z" fill="#8ec5c7" stroke="#8ec5c7" stroke-width="1.51"/><path d="M178,642L286,737L285,643Z" fill="#93c7ca" stroke="#93c7ca" stroke-width="1.51"/><path d="M1364,156L1352,61L1265,60Z" fill="#86acbe" stroke="#86acbe" stroke-width="1.51"/><path d="M763,945L764,1031L867,939Z" fill="#488eb5" stroke="#488eb5" stroke-width="1.51"/><path d="M962,946L969,1031L1061,939Z" fill="#2f82b7" stroke="#2f82b7" stroke-width="1.51"/><path d="M679,941L764,1031L763,945Z" fill="#5091b3" stroke="#5091b3" stroke-width="1.51"/><path d="M674,1034L764,1031L679,941Z" fill="#528fae" stroke="#528fae" stroke-width="1.51"/><path d="M574,1028L674,1034L679,941Z" fill="#5b91ac" stroke="#5b91ac" stroke-width="1.51"/><path d="M370,946L481,936L472,849Z" fill="#75a4b5" stroke="#75a4b5" stroke-width="1.51"/><path d="M1061,939L1166,930L1070,847Z" fill="#2782b9" stroke="#2782b9" stroke-width="1.51"/><path d="M1160,1034L1166,930L1061,939Z" fill="#2277b1" stroke="#2277b1" stroke-width="1.51"/><path d="M1260,837L1350,747L1266,741Z" fill="#2380b8" stroke="#2380b8" stroke-width="1.51"/><path d="M1457,448L1347,443L1350,547Z" fill="#4e95b9" stroke="#4e95b9" stroke-width="1.51"/><path d="M575,-131L472,-132L482,-33Z" fill="#c8eacd" stroke="#c8eacd" stroke-width="1.51"/><path d="M386,-140L472,-132L575,-131Z" fill="#ceecd0" stroke="#ceecd0" stroke-width="1.51"/><path d="M1361,348L1461,250L1351,255Z" fill="#709fb1" stroke="#709fb1" stroke-width="1.51"/><path d="M1364,156L1445,65L1352,61Z" fill="#84a7bc" stroke="#84a7bc" stroke-width="1.51"/><path d="M1457,448L1350,547L1452,551Z" fill="#4790b7" stroke="#4790b7" stroke-width="1.51"/><path d="M276,539L178,642L285,643Z" fill="#98cfce" stroke="#98cfce" stroke-width="1.51"/><path d="M180,356L277,450L288,358Z" fill="#b0e0c3" stroke="#b0e0c3" stroke-width="1.51"/><path d="M180,356L288,358L276,257Z" fill="#b8e3c0" stroke="#b8e3c0" stroke-width="1.51"/><path d="M189,252L180,356L276,257Z" fill="#bee5c0" stroke="#bee5c0" stroke-width="1.51"/><path d="M381,-33L283,55L385,58Z" fill="#cdecca" stroke="#cdecca" stroke-width="1.51"/><path d="M278,-41L283,55L381,-33Z" fill="#d2eecd" stroke="#d2eecd" stroke-width="1.51"/><path d="M764,1031L872,1038L867,939Z" fill="#4388b2" stroke="#4388b2" stroke-width="1.51"/><path d="M1452,551L1350,547L1348,647Z" fill="#3b8ebe" stroke="#3b8ebe" stroke-width="1.51"/><path d="M189,252L276,257L279,148Z" fill="#c4e8c2" stroke="#c4e8c2" stroke-width="1.51"/><path d="M1251,-48L1162,-145L1167,-44Z" fill="#96bccf" stroke="#96bccf" stroke-width="1.51"/><path d="M1060,-142L1162,-145L775,-138Z" fill="#a5d0dc" stroke="#a5d0dc" stroke-width="1.51"/><path d="M1264,-136L1162,-145L1251,-48Z" fill="#97bad0" stroke="#97bad0" stroke-width="1.51"/><path d="M182,148L189,252L279,148Z" fill="#caeac5" stroke="#caeac5" stroke-width="1.51"/><path d="M872,1038L969,1031L962,946Z" fill="#3582b5" stroke="#3582b5" stroke-width="1.51"/><path d="M764,1031L674,1034L872,1038Z" fill="#4a87ac" stroke="#4a87ac" stroke-width="1.51"/><path d="M574,1028L679,941L569,935Z" fill="#6097b0" stroke="#6097b0" stroke-width="1.51"/><path d="M1449,651L1452,551L1348,647Z" fill="#3488bb" stroke="#3488bb" stroke-width="1.51"/><path d="M184,454L176,542L276,539Z" fill="#a3d7cb" stroke="#a3d7cb" stroke-width="1.51"/><path d="M79,455L176,542L184,454Z" fill="#a9dbcd" stroke="#a9dbcd" stroke-width="1.51"/><path d="M1453,353L1461,250L1361,348Z" fill="#699aaf" stroke="#699aaf" stroke-width="1.51"/><path d="M1546,349L1461,250L1453,353Z" fill="#6794a9" stroke="#6794a9" stroke-width="1.51"/><path d="M481,936L574,1028L569,935Z" fill="#6899ae" stroke="#6899ae" stroke-width="1.51"/><path d="M471,1030L574,1028L481,936Z" fill="#6b96a9" stroke="#6b96a9" stroke-width="1.51"/><path d="M1360,-39L1264,-136L1251,-48Z" fill="#92b3cb" stroke="#92b3cb" stroke-width="1.51"/><path d="M1461,250L1448,148L1364,156Z" fill="#7aa0b3" stroke="#7aa0b3" stroke-width="1.51"/><path d="M1350,747L1449,651L1348,647Z" fill="#2b84bb" stroke="#2b84bb" stroke-width="1.51"/><path d="M1547,542L1545,453L1457,448Z" fill="#4b89ac" stroke="#4b89ac" stroke-width="1.51"/><path d="M1451,748L1449,651L1350,747Z" fill="#277cb5" stroke="#277cb5" stroke-width="1.51"/><path d="M1357,849L1350,747L1260,837Z" fill="#1e79b5" stroke="#1e79b5" stroke-width="1.51"/><path d="M1166,930L1250,934L1260,837Z" fill="#1c77b4" stroke="#1c77b4" stroke-width="1.51"/><path d="M969,1031L1059,1039L1061,939Z" fill="#2c7bb0" stroke="#2c7bb0" stroke-width="1.51"/><path d="M872,1038L1059,1039L969,1031Z" fill="#317baf" stroke="#317baf" stroke-width="1.51"/><path d="M176,542L178,642L276,539Z" fill="#9dd3ce" stroke="#9dd3ce" stroke-width="1.51"/><path d="M286,737L280,846L371,834Z" fill="#85b4c0" stroke="#85b4c0" stroke-width="1.51"/><path d="M188,57L182,148L279,148Z" fill="#d0edc9" stroke="#d0edc9" stroke-width="1.51"/><path d="M75,260L90,357L180,356Z" fill="#bde5c6" stroke="#bde5c6" stroke-width="1.51"/><path d="M180,356L90,357L184,454Z" fill="#b4e1c8" stroke="#b4e1c8" stroke-width="1.51"/><path d="M188,57L279,148L283,55Z" fill="#d1edc9" stroke="#d1edc9" stroke-width="1.51"/><path d="M1160,1034L1250,934L1166,930Z" fill="#1c72ae" stroke="#1c72ae" stroke-width="1.51"/><path d="M472,-132L386,-140L381,-33Z" fill="#d1edd0" stroke="#d1edd0" stroke-width="1.51"/><path d="M666,-137L386,-140L575,-131Z" fill="#c8ead0" stroke="#c8ead0" stroke-width="1.51"/><path d="M186,-145L386,-140L775,-138Z" fill="#d1edd1" stroke="#d1edd1" stroke-width="1.51"/><path d="M1360,-39L1265,60L1352,61Z" fill="#8aaec3" stroke="#8aaec3" stroke-width="1.51"/><path d="M1445,65L1360,-39L1352,61Z" fill="#88a8c0" stroke="#88a8c0" stroke-width="1.51"/><path d="M285,-134L278,-41L381,-33Z" fill="#d6efd1" stroke="#d6efd1" stroke-width="1.51"/><path d="M188,751L280,846L286,737Z" fill="#8bb9c3" stroke="#8bb9c3" stroke-width="1.51"/><path d="M371,834L370,946L472,849Z" fill="#7aa9b8" stroke="#7aa9b8" stroke-width="1.51"/><path d="M1250,934L1357,849L1260,837Z" fill="#1a75b3" stroke="#1a75b3" stroke-width="1.51"/><path d="M280,846L370,946L371,834Z" fill="#7fabbb" stroke="#7fabbb" stroke-width="1.51"/><path d="M1448,148L1445,65L1364,156Z" fill="#81a3b6" stroke="#81a3b6" stroke-width="1.51"/><path d="M1544,50L1445,65L1448,148Z" fill="#819eb3" stroke="#819eb3" stroke-width="1.51"/><path d="M278,-41L188,57L283,55Z" fill="#d5eece" stroke="#d5eece" stroke-width="1.51"/><path d="M370,946L471,1030L481,936Z" fill="#729cae" stroke="#729cae" stroke-width="1.51"/><path d="M574,1028L385,1042L674,1034Z" fill="#6590a5" stroke="#6590a5" stroke-width="1.51"/><path d="M674,1034L385,1042L872,1038Z" fill="#598ca7" stroke="#598ca7" stroke-width="1.51"/><path d="M1250,934L1360,941L1357,849Z" fill="#136eaf" stroke="#136eaf" stroke-width="1.51"/><path d="M1059,1039L1160,1034L1061,939Z" fill="#2675ad" stroke="#2675ad" stroke-width="1.51"/><path d="M1357,849L1451,748L1350,747Z" fill="#1d78b4" stroke="#1d78b4" stroke-width="1.51"/><path d="M1547,542L1457,448L1452,551Z" fill="#4789b1" stroke="#4789b1" stroke-width="1.51"/><path d="M1457,448L1546,349L1453,353Z" fill="#5c91ab" stroke="#5c91ab" stroke-width="1.51"/><path d="M280,846L275,933L370,946Z" fill="#80a8ba" stroke="#80a8ba" stroke-width="1.51"/><path d="M178,642L188,751L286,737Z" fill="#91c2c9" stroke="#91c2c9" stroke-width="1.51"/><path d="M1547,542L1452,551L1551,653Z" fill="#3981b1" stroke="#3981b1" stroke-width="1.51"/><path d="M1461,250L1559,164L1448,148Z" fill="#7899ac" stroke="#7899ac" stroke-width="1.51"/><path d="M1545,453L1546,349L1457,448Z" fill="#568daa" stroke="#568daa" stroke-width="1.51"/><path d="M75,260L189,252L75,153Z" fill="#caeac9" stroke="#caeac9" stroke-width="1.51"/><path d="M75,260L180,356L189,252Z" fill="#c0e7c3" stroke="#c0e7c3" stroke-width="1.51"/><path d="M176,542L88,553L178,642Z" fill="#9fd4d1" stroke="#9fd4d1" stroke-width="1.51"/><path d="M178,642L92,645L188,751Z" fill="#97c8cf" stroke="#97c8cf" stroke-width="1.51"/><path d="M90,357L79,455L184,454Z" fill="#b1e0cb" stroke="#b1e0cb" stroke-width="1.51"/><path d="M1643,261L1548,251L1546,349Z" fill="#698c9e" stroke="#698c9e" stroke-width="1.51"/><path d="M1551,653L1452,551L1449,651Z" fill="#3282b4" stroke="#3282b4" stroke-width="1.51"/><path d="M1546,349L1548,251L1461,250Z" fill="#6b93a5" stroke="#6b93a5" stroke-width="1.51"/><path d="M1559,164L1548,251L1643,261Z" fill="#708ea1" stroke="#708ea1" stroke-width="1.51"/><path d="M79,455L88,553L176,542Z" fill="#a7d9d0" stroke="#a7d9d0" stroke-width="1.51"/><path d="M386,-140L285,-134L381,-33Z" fill="#d6efd2" stroke="#d6efd2" stroke-width="1.51"/><path d="M278,-41L177,-33L188,57Z" fill="#d8f0d2" stroke="#d8f0d2" stroke-width="1.51"/><path d="M-18,450L-6,540L79,455Z" fill="#afded3" stroke="#afded3" stroke-width="1.51"/><path d="M75,153L189,252L182,148Z" fill="#ccebc9" stroke="#ccebc9" stroke-width="1.51"/><path d="M75,153L182,148L82,50Z" fill="#d5efce" stroke="#d5efce" stroke-width="1.51"/><path d="M1457,-42L1360,-130L1360,-39Z" fill="#8daac6" stroke="#8daac6" stroke-width="1.51"/><path d="M1360,-39L1360,-130L1264,-136Z" fill="#92b1cb" stroke="#92b1cb" stroke-width="1.51"/><path d="M1264,-136L1550,-133L1162,-145Z" fill="#95b2ce" stroke="#95b2ce" stroke-width="1.51"/><path d="M1457,-42L1360,-39L1445,65Z" fill="#88a5bf" stroke="#88a5bf" stroke-width="1.51"/><path d="M176,834L280,846L188,751Z" fill="#8bb6c3" stroke="#8bb6c3" stroke-width="1.51"/><path d="M178,933L275,933L280,846Z" fill="#85aabd" stroke="#85aabd" stroke-width="1.51"/><path d="M370,946L385,1042L471,1030Z" fill="#7398aa" stroke="#7398aa" stroke-width="1.51"/><path d="M1263,1037L1360,941L1250,934Z" fill="#1369a9" stroke="#1369a9" stroke-width="1.51"/><path d="M1357,849L1451,844L1451,748Z" fill="#1971ae" stroke="#1971ae" stroke-width="1.51"/><path d="M76,745L92,645L-12,642Z" fill="#9bcad4" stroke="#9bcad4" stroke-width="1.51"/><path d="M88,553L92,645L178,642Z" fill="#9dd1d4" stroke="#9dd1d4" stroke-width="1.51"/><path d="M1451,930L1451,844L1357,849Z" fill="#126aab" stroke="#126aab" stroke-width="1.51"/><path d="M1451,748L1551,653L1449,651Z" fill="#2b7ab0" stroke="#2b7ab0" stroke-width="1.51"/><path d="M186,-145L177,-33L278,-41Z" fill="#ddf2d6" stroke="#ddf2d6" stroke-width="1.51"/><path d="M277,1034L385,1042L370,946Z" fill="#7999ac" stroke="#7999ac" stroke-width="1.51"/><path d="M471,1030L385,1042L574,1028Z" fill="#6c92a4" stroke="#6c92a4" stroke-width="1.51"/><path d="M872,1038L385,1042L1059,1039Z" fill="#4986ab" stroke="#4986ab" stroke-width="1.51"/><path d="M1555,743L1551,653L1451,748Z" fill="#2673ab" stroke="#2673ab" stroke-width="1.51"/><path d="M1642,441L1546,349L1545,453Z" fill="#5587a3" stroke="#5587a3" stroke-width="1.51"/><path d="M76,745L176,834L188,751Z" fill="#8fbbc8" stroke="#8fbbc8" stroke-width="1.51"/><path d="M1160,1034L1263,1037L1250,934Z" fill="#1a6ba8" stroke="#1a6ba8" stroke-width="1.51"/><path d="M1059,1039L1263,1037L1160,1034Z" fill="#1e6ba6" stroke="#1e6ba6" stroke-width="1.51"/><path d="M1544,50L1457,-42L1445,65Z" fill="#849eb7" stroke="#849eb7" stroke-width="1.51"/><path d="M1548,251L1559,164L1461,250Z" fill="#7295a7" stroke="#7295a7" stroke-width="1.51"/><path d="M1642,441L1545,453L1547,542Z" fill="#4a83a6" stroke="#4a83a6" stroke-width="1.51"/><path d="M82,50L182,148L188,57Z" fill="#d5efce" stroke="#d5efce" stroke-width="1.51"/><path d="M1559,164L1544,50L1448,148Z" fill="#7d99ad" stroke="#7d99ad" stroke-width="1.51"/><path d="M1648,547L1642,441L1547,542Z" fill="#447ea5" stroke="#447ea5" stroke-width="1.51"/><path d="M1548,843L1555,743L1451,748Z" fill="#1d6ca7" stroke="#1d6ca7" stroke-width="1.51"/><path d="M1548,843L1451,748L1451,844Z" fill="#1a6ba8" stroke="#1a6ba8" stroke-width="1.51"/><path d="M177,-33L82,50L188,57Z" fill="#d9f0d3" stroke="#d9f0d3" stroke-width="1.51"/><path d="M80,-35L82,50L177,-33Z" fill="#dcf2d7" stroke="#dcf2d7" stroke-width="1.51"/><path d="M92,645L76,745L188,751Z" fill="#95c4ce" stroke="#95c4ce" stroke-width="1.51"/><path d="M176,834L178,933L280,846Z" fill="#87aec0" stroke="#87aec0" stroke-width="1.51"/><path d="M275,933L277,1034L370,946Z" fill="#7ea0b3" stroke="#7ea0b3" stroke-width="1.51"/><path d="M-12,642L92,645L88,553Z" fill="#a0d2d7" stroke="#a0d2d7" stroke-width="1.51"/><path d="M-6,540L88,553L79,455Z" fill="#aadad3" stroke="#aadad3" stroke-width="1.51"/><path d="M1648,547L1547,542L1647,639Z" fill="#3979a8" stroke="#3979a8" stroke-width="1.51"/><path d="M1559,164L1656,50L1544,50Z" fill="#7d92a8" stroke="#7d92a8" stroke-width="1.51"/><path d="M1451,1039L1451,930L1360,941Z" fill="#095ea2" stroke="#095ea2" stroke-width="1.51"/><path d="M1360,941L1451,930L1357,849Z" fill="#0c69ac" stroke="#0c69ac" stroke-width="1.51"/><path d="M1550,-133L1455,-130L1457,-42Z" fill="#8ca1be" stroke="#8ca1be" stroke-width="1.51"/><path d="M1457,-42L1455,-130L1360,-130Z" fill="#8ea8c5" stroke="#8ea8c5" stroke-width="1.51"/><path d="M1360,-130L1455,-130L1264,-136Z" fill="#93afcc" stroke="#93afcc" stroke-width="1.51"/><path d="M89,847L178,933L176,834Z" fill="#8aafc3" stroke="#8aafc3" stroke-width="1.51"/><path d="M178,933L277,1034L275,933Z" fill="#81a2b6" stroke="#81a2b6" stroke-width="1.51"/><path d="M1642,441L1653,357L1546,349Z" fill="#5a86a0" stroke="#5a86a0" stroke-width="1.51"/><path d="M1162,-145L186,-145L775,-138Z" fill="#bae4d6" stroke="#bae4d6" stroke-width="1.51"/><path d="M386,-140L186,-145L285,-134Z" fill="#def2d7" stroke="#def2d7" stroke-width="1.51"/><path d="M285,-134L186,-145L278,-41Z" fill="#def2d6" stroke="#def2d6" stroke-width="1.51"/><path d="M1653,357L1643,261L1546,349Z" fill="#63899e" stroke="#63899e" stroke-width="1.51"/><path d="M-18,450L79,455L90,357Z" fill="#b4e1ce" stroke="#b4e1ce" stroke-width="1.51"/><path d="M-18,450L90,357L-23,346Z" fill="#bbe4ce" stroke="#bbe4ce" stroke-width="1.51"/><path d="M90,357L75,260L-23,346Z" fill="#c1e7ca" stroke="#c1e7ca" stroke-width="1.51"/><path d="M-23,346L75,260L-20,251Z" fill="#c7e9cb" stroke="#c7e9cb" stroke-width="1.51"/><path d="M1263,1037L1361,1040L1360,941Z" fill="#1062a3" stroke="#1062a3" stroke-width="1.51"/><path d="M1059,1039L1361,1040L1263,1037Z" fill="#1966a3" stroke="#1966a3" stroke-width="1.51"/><path d="M1548,1042L1361,1040L1059,1039Z" fill="#115e9f" stroke="#115e9f" stroke-width="1.51"/><path d="M1642,441L1648,547L1653,357Z" fill="#4e83a3" stroke="#4e83a3" stroke-width="1.51"/><path d="M1647,639L1547,542L1551,653Z" fill="#3278ab" stroke="#3278ab" stroke-width="1.51"/><path d="M-20,251L75,260L75,153Z" fill="#cdeccc" stroke="#cdeccc" stroke-width="1.51"/><path d="M1544,50L1551,-31L1457,-42Z" fill="#859cb5" stroke="#859cb5" stroke-width="1.51"/><path d="M1656,50L1551,-31L1544,50Z" fill="#8094ad" stroke="#8094ad" stroke-width="1.51"/><path d="M-21,152L-20,251L75,153Z" fill="#d3eed0" stroke="#d3eed0" stroke-width="1.51"/><path d="M1641,746L1647,639L1551,653Z" fill="#2a6fa5" stroke="#2a6fa5" stroke-width="1.51"/><path d="M1451,930L1548,843L1451,844Z" fill="#1364a5" stroke="#1364a5" stroke-width="1.51"/><path d="M1545,940L1548,843L1451,930Z" fill="#0d5ea0" stroke="#0d5ea0" stroke-width="1.51"/><path d="M178,933L175,1036L277,1034Z" fill="#819db3" stroke="#819db3" stroke-width="1.51"/><path d="M76,745L89,847L176,834Z" fill="#8fb8c8" stroke="#8fb8c8" stroke-width="1.51"/><path d="M-12,838L89,847L76,745Z" fill="#92b9cb" stroke="#92b9cb" stroke-width="1.51"/><path d="M1643,261L1642,164L1559,164Z" fill="#738ea1" stroke="#738ea1" stroke-width="1.51"/><path d="M1656,50L1642,164L1643,261Z" fill="#768fa3" stroke="#768fa3" stroke-width="1.51"/><path d="M-19,55L-21,152L75,153Z" fill="#daf1d3" stroke="#daf1d3" stroke-width="1.51"/><path d="M79,-132L80,-35L177,-33Z" fill="#e1f3db" stroke="#e1f3db" stroke-width="1.51"/><path d="M1648,547L1647,639L1653,357Z" fill="#447ea5" stroke="#447ea5" stroke-width="1.51"/><path d="M1641,746L1551,653L1555,743Z" fill="#256da4" stroke="#256da4" stroke-width="1.51"/><path d="M-6,540L-12,642L88,553Z" fill="#a6d6d7" stroke="#a6d6d7" stroke-width="1.51"/><path d="M-105,556L-12,642L-6,540Z" fill="#a9d7db" stroke="#a9d7db" stroke-width="1.51"/><path d="M-12,737L-12,642L-104,736Z" fill="#9ec8d6" stroke="#9ec8d6" stroke-width="1.51"/><path d="M-19,55L75,153L82,50Z" fill="#daf1d3" stroke="#daf1d3" stroke-width="1.51"/><path d="M-115,255L-105,350L-23,346Z" fill="#c8ead0" stroke="#c8ead0" stroke-width="1.51"/><path d="M1640,842L1641,746L1555,743Z" fill="#1d649f" stroke="#1d649f" stroke-width="1.51"/><path d="M1640,842L1555,743L1548,843Z" fill="#1a629f" stroke="#1a629f" stroke-width="1.51"/><path d="M-105,556L-6,540L-18,450Z" fill="#afdcd8" stroke="#afdcd8" stroke-width="1.51"/><path d="M-12,642L-12,737L76,745Z" fill="#9ac6d3" stroke="#9ac6d3" stroke-width="1.51"/><path d="M1361,1040L1451,1039L1360,941Z" fill="#095da0" stroke="#095da0" stroke-width="1.51"/><path d="M79,938L178,933L89,847Z" fill="#8aacc3" stroke="#8aacc3" stroke-width="1.51"/><path d="M83,1028L175,1036L178,933Z" fill="#839fb6" stroke="#839fb6" stroke-width="1.51"/><path d="M277,1034L175,1036L385,1042Z" fill="#7c97ab" stroke="#7c97ab" stroke-width="1.51"/><path d="M1451,1039L1545,940L1451,930Z" fill="#0a599c" stroke="#0a599c" stroke-width="1.51"/><path d="M1551,-31L1550,-133L1457,-42Z" fill="#889db9" stroke="#889db9" stroke-width="1.51"/><path d="M1455,-130L1550,-133L1264,-136Z" fill="#91a9c7" stroke="#91a9c7" stroke-width="1.51"/><path d="M1645,-44L1550,-133L1551,-31Z" fill="#8696b3" stroke="#8696b3" stroke-width="1.51"/><path d="M-17,-35L-19,55L82,50Z" fill="#e0f3d9" stroke="#e0f3d9" stroke-width="1.51"/><path d="M-17,-35L82,50L80,-35Z" fill="#dff3da" stroke="#dff3da" stroke-width="1.51"/><path d="M1653,357L1656,50L1643,261Z" fill="#708da0" stroke="#708da0" stroke-width="1.51"/><path d="M1642,164L1656,50L1559,164Z" fill="#7a90a4" stroke="#7a90a4" stroke-width="1.51"/><path d="M186,-145L79,-132L177,-33Z" fill="#e2f4db" stroke="#e2f4db" stroke-width="1.51"/><path d="M-12,838L79,938L89,847Z" fill="#8eb1c8" stroke="#8eb1c8" stroke-width="1.51"/><path d="M-23,346L-105,350L-18,450Z" fill="#bfe5d1" stroke="#bfe5d1" stroke-width="1.51"/><path d="M-115,255L-23,346L-20,251Z" fill="#cbebce" stroke="#cbebce" stroke-width="1.51"/><path d="M-115,255L-20,251L-107,165Z" fill="#d3eed2" stroke="#d3eed2" stroke-width="1.51"/><path d="M1545,940L1640,842L1548,843Z" fill="#125c9b" stroke="#125c9b" stroke-width="1.51"/><path d="M1641,746L1644,944L1647,639Z" fill="#1d649f" stroke="#1d649f" stroke-width="1.51"/><path d="M1644,944L1640,842L1545,940Z" fill="#0d5697" stroke="#0d5697" stroke-width="1.51"/><path d="M-105,350L-114,451L-18,450Z" fill="#bbe4d4" stroke="#bbe4d4" stroke-width="1.51"/><path d="M-114,451L-105,556L-18,450Z" fill="#b4dfd7" stroke="#b4dfd7" stroke-width="1.51"/><path d="M-12,737L-12,838L76,745Z" fill="#95becf" stroke="#95becf" stroke-width="1.51"/><path d="M1656,50L1645,-44L1551,-31Z" fill="#8193ad" stroke="#8193ad" stroke-width="1.51"/><path d="M-109,834L-12,838L-12,737Z" fill="#97bcd0" stroke="#97bcd0" stroke-width="1.51"/><path d="M-107,165L-20,251L-21,152Z" fill="#d5efd2" stroke="#d5efd2" stroke-width="1.51"/><path d="M79,-132L-17,-35L80,-35Z" fill="#e4f5de" stroke="#e4f5de" stroke-width="1.51"/><path d="M-105,350L-115,255L-114,451Z" fill="#c6e8d3" stroke="#c6e8d3" stroke-width="1.51"/><path d="M-107,165L-21,152L-120,56Z" fill="#def2d7" stroke="#def2d7" stroke-width="1.51"/><path d="M-120,56L-21,152L-19,55Z" fill="#dff3d8" stroke="#dff3d8" stroke-width="1.51"/><path d="M-105,556L-109,642L-12,642Z" fill="#a7d5dd" stroke="#a7d5dd" stroke-width="1.51"/><path d="M-114,451L-109,642L-105,556Z" fill="#b0dbdd" stroke="#b0dbdd" stroke-width="1.51"/><path d="M-15,940L83,1028L79,938Z" fill="#89a4bf" stroke="#89a4bf" stroke-width="1.51"/><path d="M79,938L83,1028L178,933Z" fill="#87a4bc" stroke="#87a4bc" stroke-width="1.51"/><path d="M385,1042L1548,1042L1059,1039Z" fill="#2e78ad" stroke="#2e78ad" stroke-width="1.51"/><path d="M1361,1040L1548,1042L1451,1039Z" fill="#095295" stroke="#095295" stroke-width="1.51"/><path d="M1451,1039L1548,1042L1545,940Z" fill="#0a5194" stroke="#0a5194" stroke-width="1.51"/><path d="M-12,838L-15,940L79,938Z" fill="#8eaec7" stroke="#8eaec7" stroke-width="1.51"/><path d="M-109,642L-104,736L-12,642Z" fill="#a2cdd9" stroke="#a2cdd9" stroke-width="1.51"/><path d="M1641,1028L1644,944L1545,940Z" fill="#094e90" stroke="#094e90" stroke-width="1.51"/><path d="M1640,842L1644,944L1641,746Z" fill="#165d9b" stroke="#165d9b" stroke-width="1.51"/><path d="M1647,639L1644,944L1653,357Z" fill="#2e73a7" stroke="#2e73a7" stroke-width="1.51"/><path d="M-113,-35L-120,56L-19,55Z" fill="#e4f5de" stroke="#e4f5de" stroke-width="1.51"/><path d="M79,-132L-13,-138L-17,-35Z" fill="#e8f6e2" stroke="#e8f6e2" stroke-width="1.51"/><path d="M186,-145L-13,-138L79,-132Z" fill="#e7f6e1" stroke="#e7f6e1" stroke-width="1.51"/><path d="M-109,834L-15,940L-12,838Z" fill="#93b3cc" stroke="#93b3cc" stroke-width="1.51"/><path d="M1656,50L1657,-137L1645,-44Z" fill="#8394af" stroke="#8394af" stroke-width="1.51"/><path d="M1645,-44L1657,-137L1550,-133Z" fill="#8796b3" stroke="#8796b3" stroke-width="1.51"/><path d="M1550,-133L1657,-137L1162,-145Z" fill="#90a5c4" stroke="#90a5c4" stroke-width="1.51"/><path d="M-113,-35L-19,55L-17,-35Z" fill="#e4f5de" stroke="#e4f5de" stroke-width="1.51"/><path d="M-107,165L-120,56L-115,255Z" fill="#dcf2d7" stroke="#dcf2d7" stroke-width="1.51"/><path d="M-115,255L-120,56L-114,451Z" fill="#d1edd2" stroke="#d1edd2" stroke-width="1.51"/><path d="M-104,736L-109,834L-12,737Z" fill="#9ac1d3" stroke="#9ac1d3" stroke-width="1.51"/><path d="M-109,642L-109,834L-104,736Z" fill="#9ec5d7" stroke="#9ec5d7" stroke-width="1.51"/><path d="M-120,947L-109,834L-109,642Z" fill="#9abcd3" stroke="#9abcd3" stroke-width="1.51"/><path d="M-120,947L-109,642L-114,451Z" fill="#a4cddb" stroke="#a4cddb" stroke-width="1.51"/><path d="M-13,-138L-113,-35L-17,-35Z" fill="#e9f6e3" stroke="#e9f6e3" stroke-width="1.51"/><path d="M1548,1042L1641,1028L1545,940Z" fill="#0a4c8e" stroke="#0a4c8e" stroke-width="1.51"/><path d="M-120,947L-22,1043L-15,940Z" fill="#8ea5c3" stroke="#8ea5c3" stroke-width="1.51"/><path d="M-15,940L-22,1043L83,1028Z" fill="#89a0bc" stroke="#89a0bc" stroke-width="1.51"/><path d="M83,1028L-22,1043L175,1036Z" fill="#849ab4" stroke="#849ab4" stroke-width="1.51"/><path d="M175,1036L-22,1043L385,1042Z" fill="#8098af" stroke="#8098af" stroke-width="1.51"/><path d="M385,1042L-22,1043L1548,1042Z" fill="#5a8ba6" stroke="#5a8ba6" stroke-width="1.51"/><path d="M-13,-138L-116,-145L-113,-35Z" fill="#edf8e6" stroke="#edf8e6" stroke-width="1.51"/><path d="M-113,-35L-116,-145L-120,56Z" fill="#eaf7e4" stroke="#eaf7e4" stroke-width="1.51"/><path d="M186,-145L-116,-145L-13,-138Z" fill="#ebf8e4" stroke="#ebf8e4" stroke-width="1.51"/><path d="M-109,834L-120,947L-15,940Z" fill="#93afcc" stroke="#93afcc" stroke-width="1.51"/><path d="M-120,56L-120,947L-114,451Z" fill="#b6e0d9" stroke="#b6e0d9" stroke-width="1.51"/><path d="M-120,947L-119,1033L-22,1043Z" fill="#8ea1c0" stroke="#8ea1c0" stroke-width="1.51"/></svg>